<svg xmlns="http://www.w3.org/2000/svg"><symbol id="bubble" viewBox="0 0 256 256"><path d="M98 149.3H84.5l-18.1 21.4 2.9 4.1 34.7-18.3-6-7.2zm-25-14.7h112.2v10.67H73zm98.1-4.1a51.3 51.3 0 0 0 2.4-15.6 44.4 44.4 0 1 0-88.8 0c0 5.3.4 10.8 2.5 15.6zm-83.7 39.6h27.9l-8.4-10.3-19.5 10.3zm70.6-20.8l-6.2 7.2 34.9 18.3 2.8-3.9-18-21.6H158z"/><path d="M128 3.1L19.8 65.5v125L128 252.9l108.2-62.4v-125zm65.7 168.8l-4.8 6.8a2.1 2.1 0 0 1-2.6.6l-9.9-5.1h-97l-9.9 5.1a2.2 2.2 0 0 1-2.6-.6l-4.8-6.8a2.3 2.3 0 0 1 .2-2.5l17.1-20.1H71a1.9 1.9 0 0 1-2.1-2v-14.8a1.9 1.9 0 0 1 2.1-2h11.9a55.6 55.6 0 0 1-2.3-15.6 48.8 48.8 0 0 1 48.6-48.5c26.5 0 48.4 22 48.4 48.5a52.1 52.1 0 0 1-2.2 15.6h11.9a1.9 1.9 0 0 1 2 2v14.8a1.9 1.9 0 0 1-2 2h-10.5l16.9 20.1a2.3 2.3 0 0 1 0 2.5z"/><path d="M140.7 170.1h27.9l-19.5-10.3-8.4 10.3zm-37.3-20.8l17.2 20.8h14.8l17.2-20.8h-49.2z"/></symbol><symbol id="dome" viewBox="0 0 256 256"><path d="M70.7 147.3h55.2v22.79H70.7zm55.2-19.5V86.3l-29.5 41.5h29.5zM130 82v45.8h56.7A60.9 60.9 0 0 0 130 82zm0 65.3h9.2v22.79H130zm-6.1-65.1a60.8 60.8 0 0 0-54.6 45.6h22z"/><path d="M128 3L19.7 65.5v125L128 253l108.3-62.5v-125zm88.5 144.3h-27.1v24.8a1.9 1.9 0 0 1-2.1 2.1H68.7a1.9 1.9 0 0 1-2.1-2.1v-24.8H39.5a2.1 2.1 0 0 1 0-4.1h15.4v-13.4a1.9 1.9 0 0 1 2.1-2h8a65 65 0 0 1 62.8-49.9c.2-.2.4-.2.8 0 30.4.2 55.6 21.6 62.4 49.9h8a1.9 1.9 0 0 1 2.1 2v13.4h15.4a2.1 2.1 0 0 1 0 4.1z"/><path d="M59 131.9h138v11.29H59zm84.4 15.4h41.9v22.79h-41.9z"/></symbol><symbol id="stilts" viewBox="0 0 256 256"><path d="M79.6 157.1h13.1v12.92H79.6zm17.2 0h20.5v12.92H96.8zm24.6 0h13.1v12.92h-13.1zm17.3 0h20.5v12.92h-20.5zM128 71.6c-24 0-44.1 14.6-45.1 41h90.2c-1-26.4-21.1-41-45.1-41zM67.3 153h121.4v-36.3H67.3zm59.7-13.9h50a2.2 2.2 0 0 1 2.1 2 2.3 2.3 0 0 1-2.1 2.1h-50a2.3 2.3 0 0 1-2.1-2.1 2.2 2.2 0 0 1 2.1-2z"/><path d="M128 3.1L19.9 65.6v124.8L128 252.9l108.1-62.5V65.6zm64.8 152a1.9 1.9 0 0 1-2.1 2h-10.2V170h10.2a2.3 2.3 0 0 1 2.1 2.1 2.2 2.2 0 0 1-2.1 2H65.3a2.2 2.2 0 0 1-2.1-2 2.3 2.3 0 0 1 2.1-2.1h10.2v-12.9H65.3a1.9 1.9 0 0 1-2.1-2v-40.4a1.9 1.9 0 0 1 2.1-2.1h13.5c1-29.1 22.7-45.1 49.2-45.1s48.2 16 49.2 45.1h13.5a1.9 1.9 0 0 1 2.1 2.1z"/><path d="M163.3 157.1h13.1v12.92h-13.1z"/></symbol></svg>